# xmcd
#
# Track frame offsets:
#	150
#	14611
#	31020
#	44262
#	56785
#	67860
#	82906
#	96022
#	108964
#
# Disc length: 1463 seconds
#
# Revision: 0
# Processed by: cddbd v1.5.2PL0 Copyright (c) Steve Scherf et al.
# Submitted via: EasyCDDAExtractor 10.0.2.1
#
DISCID=6405b509
DTITLE=Various Artist - Goose Pond Music GPM-002
DYEAR=2000
DGENRE=Gospel
TTITLE0=Trish Henderson - Jesus How Much Do You Love Me
TTITLE1=Charley Kyles - Today, Reality Came Home To Me
TTITLE2=Richel Binondo - Jesus Is On My Side
TTITLE3=Trish Henderson - Nothing But Good
TTITLE4=Charley Kyles - Gonna Be Moving
TTITLE5=The Texas Girls - Let Our Freedom Ring
TTITLE6=Larry England - Child That's Lost, Jesus Is Calling
TTITLE7=Augusta E. Jones - Glory Land
TTITLE8=Charley Kyles - A Special Thank You To The Radio Stations
EXTD=
EXTT0=
EXTT1=
EXTT2=
EXTT3=
EXTT4=
EXTT5=
EXTT6=
EXTT7=
EXTT8=
PLAYORDER=
